<svg width="363" height="280" viewBox="0 0 363 280" fill="none" xmlns="http://www.w3.org/2000/svg">
<path fill-rule="evenodd" clip-rule="evenodd" d="M328.298 37.0854C320.924 15.6833 299.452 1.11051 275.601 3.82547L47.6647 29.7723C22.5077 32.636 3.5 53.9599 3.5 79.3282V226.625C3.5 254.173 25.7923 276.5 53.2857 276.5H309.714C337.208 276.5 359.5 254.173 359.5 226.625V83.9178C359.5 63.2743 346.981 45.5584 329.129 37.9774L328.515 37.7165L328.298 37.0854ZM330.913 35.4802C322.898 13.1407 300.326 -2.00842 275.262 0.844724L47.3254 26.7916C20.6485 29.8283 0.5 52.4384 0.5 79.3282V226.625C0.5 255.825 24.1305 279.5 53.2857 279.5H309.714C338.869 279.5 362.5 255.825 362.5 226.625V83.9178C362.5 62.2672 349.509 43.6577 330.913 35.4802ZM277.205 17.8586C290.211 16.3829 302.225 22.0786 309.552 31.63L311.403 34.043H140.1L139.957 31.0499L277.192 17.8601C277.197 17.8596 277.201 17.8591 277.205 17.8586ZM305.129 31.043C298.337 23.7577 288.304 19.6146 277.531 20.8409L277.518 20.8424L171.386 31.043H305.129ZM17.5952 83.9178C17.5952 64.1761 33.572 48.1679 53.2857 48.1679H309.714C329.428 48.1679 345.405 64.1761 345.405 83.9178V226.625C345.405 246.367 329.428 262.375 309.714 262.375H53.2857C33.572 262.375 17.5952 246.367 17.5952 226.625V83.9178ZM53.2857 51.1679C35.2337 51.1679 20.5952 65.8281 20.5952 83.9178V226.625C20.5952 244.715 35.2337 259.375 53.2857 259.375H309.714C327.766 259.375 342.405 244.715 342.405 226.625V83.9178C342.405 65.8281 327.766 51.1679 309.714 51.1679H53.2857Z" fill="white"/>
<path fill-rule="evenodd" clip-rule="evenodd" d="M286.069 87.0002L241.799 230H208.523L182.188 143.412L155.467 230H122.201L77.9308 87.0002H108.767C111.978 87.0002 114.897 87.7301 117.328 89.3958C119.77 91.0256 121.451 93.2717 122.217 96.0732L122.221 96.0862L141.079 167.579L141.083 167.597C141.323 168.552 141.562 169.544 141.8 170.573C142.143 169.477 142.498 168.412 142.867 167.376L165.097 95.9585L165.101 95.9443C165.896 93.4776 167.53 91.4353 169.722 89.775C172.188 87.8916 175.107 87.0002 178.324 87.0002H187.749C190.974 87.0002 193.899 87.7693 196.252 89.5826C198.372 91.1573 199.976 93.2034 201.053 95.6595L201.122 95.8162L223.202 167.361C223.535 168.258 223.857 169.177 224.168 170.119C224.381 169.251 224.594 168.403 224.807 167.577L224.809 167.569L243.665 96.0819L243.67 96.0648C244.393 93.4526 246.075 91.3282 248.372 89.6476C250.837 87.8445 253.74 87.0002 256.929 87.0002H286.069ZM225.895 175.968C225.432 178.245 224.97 180.681 224.507 183.277C223.995 180.75 223.431 178.344 222.815 176.062C222.072 173.305 221.254 170.726 220.36 168.326L198.305 96.8643C197.426 94.8584 196.138 93.2285 194.441 91.9748C192.745 90.6584 190.514 90.0002 187.749 90.0002H178.324C175.685 90.0002 173.423 90.7211 171.538 92.1629C169.716 93.542 168.522 95.1091 167.957 96.8643L145.713 168.326C144.781 170.939 143.93 173.766 143.161 176.808C142.583 179.094 142.052 181.501 141.566 184.029C141.072 181.508 140.577 179.082 140.083 176.752C140.012 176.418 139.941 176.085 139.87 175.755C139.304 173.059 138.739 170.583 138.173 168.326L119.323 96.8643C118.758 94.7957 117.533 93.1345 115.648 91.8808C113.825 90.6271 111.532 90.0002 108.767 90.0002H82L124.413 227H153.254L179.455 142.092C179.867 141.014 180.258 139.851 180.627 138.605C180.63 138.594 180.634 138.583 180.637 138.573C180.64 138.561 180.643 138.55 180.647 138.539C180.722 138.285 180.796 138.028 180.869 137.767C181.309 136.137 181.749 134.445 182.188 132.689C182.628 134.445 183.068 136.137 183.508 137.767C183.581 138.028 183.655 138.285 183.73 138.539C183.734 138.55 183.737 138.561 183.74 138.573C183.743 138.583 183.747 138.594 183.75 138.605C184.119 139.851 184.51 141.014 184.922 142.092L210.746 227H239.587L282 90.0002H256.929C254.29 90.0002 252.028 90.6898 250.143 92.0689C248.258 93.4479 247.064 95.0464 246.562 96.8643L227.712 168.326C227.146 170.52 226.581 172.871 226.015 175.378C225.975 175.574 225.935 175.77 225.895 175.968Z" fill="white"/>
</svg>
